<?xml version="1.0" encoding="UTF-8"?>
<svg width="347px" height="70px" viewBox="0 0 347 70" version="1.1" xmlns="http://www.w3.org/2000/svg" xmlns:xlink="http://www.w3.org/1999/xlink">
    <!-- Generator: Sketch 48.2 (47327) - http://www.bohemiancoding.com/sketch -->
    <title>logo</title>
    <desc>Created with Sketch.</desc>
    <defs></defs>
    <g id="Page-1" stroke="none" stroke-width="1" fill="none" fill-rule="evenodd">
        <g id="logo">
            <g id="box" transform="translate(100.858131, 0.398844)">
                <rect id="bg" stroke="#979797" stroke-width="0.5" fill="#000000" x="3.20184544" y="0" width="68.839677" height="68.6011561"></rect>
                <path d="M0.289767013,41.5196532 L9.09324106,39.2701734 C9.77043137,44.5939422 12.8554095,47.5932486 18.0472018,47.5932486 C22.8627774,47.5932486 25.9477555,45.9436301 25.9477555,43.1692717 C25.9477555,40.3949133 23.3142376,39.9450173 15.1879539,37.6205549 C6.45972318,35.1461272 1.79463437,32.0718382 1.79463437,25.9232601 C1.79463437,19.7746821 7.06167013,13.7760694 16.843308,13.7760694 C26.6249458,13.7760694 31.6662514,18.7249249 33.622579,25.4733642 L25.4962953,27.9477919 C24.2924014,24.6485549 22.2608304,21.7992139 16.9185513,21.7992139 C12.9306528,21.7992139 10.6733518,23.523815 10.6733518,25.4733642 C10.6733518,27.7228439 12.1782191,28.3227052 22.6370473,31.2470289 C32.4939285,33.9464046 34.6759862,37.8455029 34.6759862,43.3942197 C34.6759862,48.9429364 29.8604106,55.7663584 18.4234187,55.7663584 C6.38447982,55.7663584 1.34317416,48.3430751 0.289767013,41.5196532 Z" id="Path" fill="#FFFFFF"></path>
                <path d="M54.2248535,55.7663584 C43.7660254,55.7663584 35.5644983,48.3430751 35.5644983,34.7712139 C35.5644983,21.1993526 44.292729,13.7760694 54.2248535,13.7760694 C64.1569781,13.7760694 72.8852088,21.1993526 72.8852088,34.7712139 C72.8852088,48.3430751 64.6836817,55.7663584 54.2248535,55.7663584 Z M54.2248535,46.9933873 C59.7176194,46.9933873 63.2540577,42.7193757 63.2540577,34.7712139 C63.2540577,26.823052 59.5671326,22.5490405 54.2248535,22.5490405 C48.8825744,22.5490405 45.1956494,26.6730867 45.1956494,34.7712139 C45.1956494,42.869341 48.7320877,46.9933873 54.2248535,46.9933873 Z" id="Combined-Shape" fill="#FFFFFF"></path>
            </g>
            <path d="M0.0640369089,55.0404624 L0.0640369089,15.2996532 L9.4694579,15.2996532 L9.4694579,19.1237688 L9.61994464,19.1237688 C11.6515156,16.4993757 15.7146574,14.1749133 20.1540161,14.1749133 C28.9574902,14.1749133 34.2997693,19.6486474 34.2997693,29.0214798 L34.2997693,55.0404624 L24.5181315,55.0404624 L24.5181315,31.4209249 C24.5181315,26.2471214 22.8627774,23.1728324 17.5204983,23.1728324 C12.7049227,23.1728324 9.84567474,26.1721387 9.84567474,30.7460809 L9.84567474,55.0404624 L0.0640369089,55.0404624 Z M56.4821546,47.3922312 C61.9749204,47.3922312 65.5113587,43.1182197 65.5113587,35.1700578 C65.5113587,27.221896 61.8244337,22.9478844 56.4821546,22.9478844 C51.1398754,22.9478844 47.4529504,27.0719306 47.4529504,35.1700578 C47.4529504,43.268185 50.9893887,47.3922312 56.4821546,47.3922312 Z M56.4821546,56.1652023 C46.0233264,56.1652023 37.8217993,48.7419191 37.8217993,35.1700578 C37.8217993,21.5981965 46.55003,14.1749133 56.4821546,14.1749133 C66.4142791,14.1749133 75.1425098,21.5981965 75.1425098,35.1700578 C75.1425098,48.7419191 66.9409827,56.1652023 56.4821546,56.1652023 Z M81.0723276,40.8687399 L81.0723276,23.5477457 L74.9023714,23.5477457 L74.9023714,15.2996532 L81.2980577,15.2996532 L81.2980577,5.55190751 L90.5529919,5.55190751 L90.5529919,15.2996532 L100.635603,15.2996532 L100.635603,23.5477457 L90.7034787,23.5477457 L90.7034787,39.968948 C90.7034787,43.9430289 91.5311557,45.6676301 96.0457578,45.6676301 L99.2812226,45.6676301 L99.2812226,55.0404624 L95.1428374,55.0404624 C84.0068189,55.0404624 81.0723276,50.3165549 81.0723276,40.8687399 Z M177.641587,55.0404624 L177.641587,0.303121387 L187.799442,0.303121387 L187.799442,55.0404624 L177.641587,55.0404624 Z M194.331206,55.0404624 L194.331206,15.2996532 L204.112844,15.2996532 L204.112844,55.0404624 L194.331206,55.0404624 Z M194.331206,9.52598844 L194.331206,0.303121387 L204.112844,0.303121387 L204.112844,9.52598844 L194.331206,9.52598844 Z M210.644609,55.0404624 L210.644609,15.2996532 L220.05003,15.2996532 L220.05003,19.1237688 L220.200517,19.1237688 C222.232088,16.4993757 226.29523,14.1749133 230.734588,14.1749133 C239.538062,14.1749133 244.880341,19.6486474 244.880341,29.0214798 L244.880341,55.0404624 L235.098704,55.0404624 L235.098704,31.4209249 C235.098704,26.2471214 233.443349,23.1728324 228.10107,23.1728324 C223.285495,23.1728324 220.426247,26.1721387 220.426247,30.7460809 L220.426247,55.0404624 L210.644609,55.0404624 Z M276.919608,41.3186358 L283.766754,47.3172486 C280.456046,52.1161387 275.565227,56.1652023 267.288457,56.1652023 C256.302925,56.1652023 248.402371,48.0670751 248.402371,35.1700578 C248.402371,22.2730405 256.453412,14.1749133 266.836997,14.1749133 C277.220581,14.1749133 285.121135,22.2730405 285.121135,35.1700578 L285.121135,38.0943815 L258.334496,38.0943815 C258.635469,44.2429595 261.795691,47.5421965 267.13797,47.5421965 C272.254519,47.5421965 274.96328,44.0929942 276.919608,41.3186358 Z M258.334496,30.8210636 L275.640471,30.8210636 C275.18901,25.7972254 272.104032,22.7229364 266.836997,22.7229364 C261.870934,22.7229364 258.710713,26.3970867 258.334496,30.8210636 Z M311.742879,55.0404624 L311.742879,51.2163468 L311.592392,51.2163468 C311.592392,51.2163468 308.808388,56.1652023 300.757347,56.1652023 C290.449006,56.1652023 286.385864,50.3915376 286.385864,44.3929249 C286.385864,37.2695723 290.373762,34.3452486 299.92967,32.0207861 C309.410334,29.6963237 310.238012,28.8715145 310.238012,26.6220347 C310.238012,24.3725549 308.206441,22.4230058 303.466108,22.4230058 C297.521882,22.4230058 296.017015,25.8722081 295.038851,28.9464971 L286.912567,25.5722775 C288.643165,19.4986821 293.759714,14.1749133 303.315622,14.1749133 C312.269582,14.1749133 319.944406,18.4489249 319.944406,29.846289 L319.944406,55.0404624 L311.742879,55.0404624 Z M301.885998,38.7692254 C296.317988,40.1189133 295.791285,42.0684624 295.791285,43.7180809 C295.791285,46.7173873 298.199073,47.7671445 301.660268,47.7671445 C308.055954,47.7671445 310.538985,44.8428208 310.538985,41.9184971 L310.538985,35.0200925 L310.388498,35.0200925 C309.937038,35.8449017 309.636065,36.8196763 301.885998,38.7692254 Z M325.723737,55.0404624 L325.723737,15.2996532 L334.978671,15.2996532 L334.978671,19.4986821 L335.129158,19.4986821 C336.634025,16.5743584 339.794247,14.5498266 343.330685,14.5498266 C344.534579,14.5498266 345.738473,14.7747746 346.942367,15.2996532 L345.437499,24.7474682 C344.384092,24.3725549 343.330685,24.1476069 342.352521,24.1476069 C338.138893,24.1476069 335.505375,26.8469827 335.505375,33.2205087 L335.505375,55.0404624 L325.723737,55.0404624 Z" id="notsolinear" fill="#000000"></path>
        </g>
    </g>
</svg>