<?xml version="1.0" encoding="UTF-8"?>
<svg width="24px" height="24px" viewBox="0 0 24 24" version="1.1" xmlns="http://www.w3.org/2000/svg" xmlns:xlink="http://www.w3.org/1999/xlink">
    <!-- Generator: Sketch 48.2 (47327) - http://www.bohemiancoding.com/sketch -->
    <title>source</title>
    <desc>Created with Sketch.</desc>
    <defs></defs>
    <g id="Desktop-Copy-2" stroke="none" stroke-width="1" fill="none" fill-rule="evenodd" transform="translate(-655.000000, -236.000000)">
        <g id="source" transform="translate(667.000000, 248.000000) rotate(-270.000000) translate(-667.000000, -248.000000) translate(655.000000, 236.000000)" fill="#FFFFFF" fill-rule="nonzero">
            <g id="Group" transform="translate(2.000000, 4.000000)">
                <path d="M1.9,9 C1.40294373,9 1,8.55228475 1,8 C1,7.44771525 1.40294373,7 1.9,7 L18.1,7 C18.5970563,7 19,7.44771525 19,8 C19,8.55228475 18.5970563,9 18.1,9 L1.9,9 Z" id="tail"></path>
                <path d="M2.41421356,8 L8.70710678,14.2928932 C9.09763107,14.6834175 9.09763107,15.3165825 8.70710678,15.7071068 C8.31658249,16.0976311 7.68341751,16.0976311 7.29289322,15.7071068 L0.292893219,8.70710678 C-0.0976310729,8.31658249 -0.0976310729,7.68341751 0.292893219,7.29289322 L7.29289322,0.292893219 C7.68341751,-0.0976310729 8.31658249,-0.0976310729 8.70710678,0.292893219 C9.09763107,0.683417511 9.09763107,1.31658249 8.70710678,1.70710678 L2.41421356,8 Z" id="head"></path>
            </g>
        </g>
    </g>
</svg>